<svg xmlns="http://www.w3.org/2000/svg" xmlns:xlink="http://www.w3.org/1999/xlink" viewBox="0 0 929.32 378.23"><defs><style>.cls-1{font-size:158px;font-family:ProximaNova-Semibold, Proxima Nova;font-weight:700;letter-spacing:-0.05em;}.cls-1,.cls-2{fill:#fff;}.cls-2{font-size:178px;font-family:FuturaStd-Book, Futura Std;letter-spacing:-0.05em;}.cls-3{fill:#fbb03b;}.cls-4{fill:none;}.cls-5{fill:url(#Dégradé_sans_nom_14);}.cls-6{fill:url(#Dégradé_sans_nom_14-2);}.cls-7{fill:#eb1d25;}.cls-8{fill:#23bf1f;}.cls-9{fill:#573562;}.cls-10{fill:url(#Dégradé_sans_nom_14-3);}</style><linearGradient id="Dégradé_sans_nom_14" y1="153.5" x2="353.67" y2="153.5" gradientUnits="userSpaceOnUse"><stop offset="0" stop-color="#fbb03b"/><stop offset="1" stop-color="#fbb03b"/></linearGradient><linearGradient id="Dégradé_sans_nom_14-2" x1="0" y1="76.37" x2="170.74" y2="76.37" xlink:href="#Dégradé_sans_nom_14"/><linearGradient id="Dégradé_sans_nom_14-3" x1="305.72" y1="297.71" x2="346.31" y2="297.71" xlink:href="#Dégradé_sans_nom_14"/></defs><title>Africa 360 Simple</title><g id="Calque_2" data-name="Calque 2"><g id="Calque_1-2" data-name="Calque 1"><text class="cls-1" transform="translate(668.62 209.6)">360</text><text class="cls-2" transform="translate(261.62 208.6)"><tspan xml:space="preserve">  </tspan><tspan class="cls-3" x="91.85" y="0">frica</tspan></text><path class="cls-4" d="M7.41,101.79l.23.1-.11-.25A.33.33,0,0,0,7.41,101.79Z"/><path class="cls-4" d="M69.38,12.26h0l0,0Z"/><polygon class="cls-4" points="90.86 9.48 90.86 9.48 90.86 9.48 90.86 9.48"/><polygon class="cls-4" points="22.14 108.57 22.14 108.58 22.14 108.57 22.14 108.57"/><path class="cls-4" d="M20.24,153.17a.86.86,0,0,1-.12-.43c-.23.23-.45.46-.67.7l.27-.13A1.76,1.76,0,0,1,20.24,153.17Z"/><polygon class="cls-4" points="18.21 105.14 18.21 105.14 18.21 105.14 18.21 105.14 18.21 105.14"/><polygon class="cls-4" points="137.17 23.33 137.17 23.33 137.17 23.33 137.17 23.33 137.17 23.33"/><path class="cls-4" d="M329.63,294.63h0l-.25-.36Z"/><path class="cls-4" d="M139,26.56h0l.13.05Z"/><polygon class="cls-4" points="138.91 4.92 138.91 4.92 138.91 4.92 138.91 4.92"/><polygon class="cls-4" points="137.69 15.06 137.69 15.06 137.69 15.06 137.69 15.06"/><polygon class="cls-4" points="139.41 26.9 139.4 26.9 139.41 26.9 139.41 26.9"/><polygon class="cls-4" points="249.1 216.76 249.1 216.76 249.1 216.76 249.1 216.76 249.1 216.76"/><polygon class="cls-4" points="242.39 197.78 242.39 197.78 242.39 197.78 242.39 197.78"/><path class="cls-4" d="M252.85,44.45a1.28,1.28,0,0,1,.46,1l.09.06a4.93,4.93,0,0,1-.2-1.19l-1-1a.41.41,0,0,1-.11-.07A1.89,1.89,0,0,0,252.85,44.45Z"/><polygon class="cls-4" points="251.29 76.42 251.29 76.42 251.29 76.42 251.29 76.42"/><polygon class="cls-4" points="144.49 68.08 144.49 68.08 144.49 68.08 144.49 68.08 144.49 68.08"/><polygon class="cls-4" points="77.59 120.34 77.59 120.34 77.59 120.34 77.59 120.34"/><polygon class="cls-4" points="129.11 86.35 129.11 86.35 129.11 86.35 129.11 86.35 129.11 86.35"/><polygon class="cls-4" points="67.28 125.49 67.28 125.49 67.28 125.49 67.28 125.49"/><polygon class="cls-4" points="95.75 115.93 95.75 115.93 95.75 115.93 95.75 115.93 95.75 115.93"/><path class="cls-5" d="M19.31,153.5v.06l.13-.12Z"/><path class="cls-6" d="M106.33,74.9c21.86-17.14,43.46-32.32,64.41-45.77a6.63,6.63,0,0,1-.13-.67c-.11-.74-.34-2.28-2.16-2.17a2.56,2.56,0,0,1-.91-.19l-.55-.16a5.3,5.3,0,0,1-1.52-.73,5.22,5.22,0,0,0-2.42-1,5.81,5.81,0,0,1-1.34-.3,4.28,4.28,0,0,0-3.2-.06,3,3,0,0,1-3.07-.52A7.17,7.17,0,0,0,153,22.32l-.38-.08c-.67-.13-1.23-.26-1.29-.6a8,8,0,0,0-.29-1.17,7.06,7.06,0,0,1-.27-1.2c-.08-.85-.5-1.29-1.25-1.29h-.12A1.08,1.08,0,0,0,148.13,19a.23.23,0,0,1-.08.12.26.26,0,0,1-.19.05c-.53-.08-.89-.44-1.23-1.25-.06-.14-.23-.52.45-.82a8.82,8.82,0,0,0,3.81-3.23,3.93,3.93,0,0,0,.67-3.16,3,3,0,0,0-1.77-2.64,1.05,1.05,0,0,1-.42-.79.86.86,0,0,1,.08-.61,4.13,4.13,0,0,0,1.84-1.5,7.12,7.12,0,0,1,.56-.64,1.92,1.92,0,0,0,.53-2.07,1.53,1.53,0,0,0-1.22-1.05,1.12,1.12,0,0,1-.45-.19.69.69,0,0,0-1,0,.85.85,0,0,0-.11,1.17h0a1.31,1.31,0,0,0-.82.3l-.08-.28a1.53,1.53,0,0,1-.11-.55V1.84a1.16,1.16,0,0,0-.8-1.35c-1.5-.48-3.71-1-5.53.43a5.11,5.11,0,0,1-2.92.82,10.24,10.24,0,0,0-1.88.26,1.09,1.09,0,0,0-.42-.4,2.65,2.65,0,0,0-1.09-.54c-.14-.05-.28-.09-.41-.15a2,2,0,0,0-1.45-.09.91.91,0,0,0-.5.6.34.34,0,0,1,0,.12l-.15,0-.13,0a3.58,3.58,0,0,0-.49-.08c-.12,0-.32,0-.42-.07a1.39,1.39,0,0,0-1.89-.7l-.07-.18-.6.48a.47.47,0,0,1-.12.07,1.2,1.2,0,0,0-.58.56c-.23,0-.46.08-.69.13a3.36,3.36,0,0,1-1.28.12,1,1,0,0,0-1.14.7,1.25,1.25,0,0,1-.33,0l-.13,0a.68.68,0,0,0-.37-.52.76.76,0,0,0-.55-.36,1,1,0,0,0-.76-.26A17.58,17.58,0,0,0,118.29,1a.55.55,0,0,0-.38.22,2.55,2.55,0,0,1-1.84.08,1.75,1.75,0,0,0-2.22.5l-.11.13-.12.05-.16.06A10.14,10.14,0,0,0,110,2a11.57,11.57,0,0,1-2.55.08l-.14,0a1.63,1.63,0,0,0-1.4.27,1,1,0,0,0-.59.34L105,2.7a2.08,2.08,0,0,0-1.1.41l-.24.06a2,2,0,0,0-.9.35,1.08,1.08,0,0,0-.52.25,1.1,1.1,0,0,0-.69.46,1.13,1.13,0,0,0-.47.72L101,5a1.22,1.22,0,0,1-.35.26,1.6,1.6,0,0,0-1.14-.58h0a1.77,1.77,0,0,0-1.24.67c-.08.08-.25.09-.53.1h-.22a1,1,0,0,1-.25,0A1.38,1.38,0,0,0,95.93,6l0,0a1.14,1.14,0,0,0-.71.47,1.11,1.11,0,0,0-.47.71l-.12.13,0,.08a.81.81,0,0,1-.27,0,1.36,1.36,0,0,0-1,.5l0,0a1,1,0,0,0-.6.33,3.22,3.22,0,0,1-1.5-.08A4.78,4.78,0,0,0,89.84,8c-1,0-1.25-.23-1.41-1a.94.94,0,0,0-.82-.83.91.91,0,0,0-.91.55c-.1.27-.27.34-.72.46-.13,0-.28.08-.43.14a2.34,2.34,0,0,0-1.45-.37H84c-.45,0-.9,0-1.34,0a8.18,8.18,0,0,1-2.72-.2l-.42-.51c-.39-.47-.77-1-1.15-1.43a1.26,1.26,0,0,1-.08-.5,1.37,1.37,0,0,0-.93-1.48,2.57,2.57,0,0,0-1.41.09A2.39,2.39,0,0,1,75,3a.9.9,0,0,0-1.1.53A24.58,24.58,0,0,1,72,7c-.52.83-1.06,1.69-1.51,2.59a4.89,4.89,0,0,0-1.76,2.25,4.2,4.2,0,0,1-.38.24,3,3,0,0,0-.93.78,4.72,4.72,0,0,0-1.62.58,6.54,6.54,0,0,1-.77.36c-.58.2-1.19.37-1.78.53-1.81.48-3.68,1-5.05,2.65a4.9,4.9,0,0,1-1,.84,3.65,3.65,0,0,0-1.8,2l-.11.38a8.57,8.57,0,0,1-.48,1.43L52.92,23.5A5.3,5.3,0,0,0,51.26,27c-.07.37-.13.72-.22,1.06l0,.13a2.77,2.77,0,0,0,.17,2.52.93.93,0,0,1,0,1.25c-.39.47-.77.94-1.15,1.42C48.51,35.24,47.1,37,44.88,38l-.35.14a4.84,4.84,0,0,0-1.69,1,10.2,10.2,0,0,1-6.63,2.79c-.19,0-.42,0-.67,0-.9-.06-2.26-.13-2.85,1.37l-.43.44a21.58,21.58,0,0,0-2.94,4.85l-.63.31a18.87,18.87,0,0,1-1.8.81l-.34.13c-1,.35-2.23.78-2.55,2.36a1.18,1.18,0,0,1-.2.3,3.22,3.22,0,0,0-.31.45,12.14,12.14,0,0,1-.75,1.22,6.64,6.64,0,0,0-1.43,3.72,2.17,2.17,0,0,1-1.25,1.83,11.46,11.46,0,0,0-2.4,1.79,11.67,11.67,0,0,1-1.94,1.49l-.57.54a1.67,1.67,0,0,0-.65,1.13,5.19,5.19,0,0,1-.95,2,7.81,7.81,0,0,0-1,1.81,1.23,1.23,0,0,0-.58.94l-.17.26-.66,1A2.41,2.41,0,0,0,11,71c0,.07-.06.17,0,.18h0a2.07,2.07,0,0,0-2,1.28l-.06.1A17,17,0,0,0,7,77.39c-.12.44-.24.88-.38,1.32a2,2,0,0,1-.1.29,1.58,1.58,0,0,0-.11,1.31,1,1,0,0,0,.68.5A1,1,0,0,0,8,80.68a.81.81,0,0,0,.19-.18c.09.66.34,1.58,1,1.69.31,0,.36.16.51.48,0,.1.1.22.17.34s0,.25.06.37a2.9,2.9,0,0,1,.06.88c0,.19-.13.28-.4.47a1.47,1.47,0,0,0-.72,1,1.57,1.57,0,0,0-.23,1.16,1.26,1.26,0,0,1,0,.27,1.69,1.69,0,0,0-.14,2.39,3,3,0,0,1,.37.56,4.28,4.28,0,0,0,.47.73A18.38,18.38,0,0,0,9.46,93a12.15,12.15,0,0,1,.11,2.61,4.63,4.63,0,0,0-.5,2.09,1.06,1.06,0,0,0-.24.8v0a8.92,8.92,0,0,0-1.15,2.26.87.87,0,0,0-.31.55.92.92,0,0,0-.26.57,2,2,0,0,0-.46.9.93.93,0,0,0-.28.77,1,1,0,0,0-.24.8,2.26,2.26,0,0,0-.5,1.35,8.18,8.18,0,0,1-4.78,6.84s0,0-.08,0a.94.94,0,0,0-.77,1,1.23,1.23,0,0,0,.42.88,1.06,1.06,0,0,0,.8.22c.22,0,.31,0,.48.56a7,7,0,0,0,.65,1.38A3,3,0,0,1,3,118.8l-.1.53.53.11h.06a1.37,1.37,0,0,1,0,.19,1.76,1.76,0,0,0,0,.67.82.82,0,0,0-.67.22.73.73,0,0,0-.21.53v0a1.58,1.58,0,0,0-.13.53v.09a21.42,21.42,0,0,1-.22,3.22c-.13.85-.5,3.11,1.78,4a.62.62,0,0,1,0,.2v.13a2.05,2.05,0,0,0,.71,1.52A2,2,0,0,0,4,131a1.06,1.06,0,0,0-.61.78,1,1,0,0,0,.11.55.84.84,0,0,0-.57.82c0,.41.12.93,1,1H4a.61.61,0,0,0,.26.19,1.27,1.27,0,0,0,.33,1,1.59,1.59,0,0,0,1.52.17l.19,0a2.38,2.38,0,0,0,.93-.45,1.21,1.21,0,0,1,.69-.32,1.1,1.1,0,0,0,.77-.4,2.5,2.5,0,0,0,1,1.36,1.74,1.74,0,0,1,.69.85.68.68,0,0,0,.49.53,1,1,0,0,0,1-.36.1.1,0,0,0,0-.06,3.74,3.74,0,0,1,.24,1.53.58.58,0,0,0,.25.52,5.36,5.36,0,0,1,.65.81,4.56,4.56,0,0,0,1.77,1.64,5,5,0,0,1,1.34,1.08l.63.62h0a.91.91,0,0,0-.63.37A1,1,0,0,0,16,144l.12.55.54-.14c.94-.23,1.12.1,1.54,1.19.06.16.12.33.19.49a3.31,3.31,0,0,1,.15,1.24,4.3,4.3,0,0,0,.2,1.53.71.71,0,0,0-.33.32,1,1,0,0,0,.22,1.13c.2.17.27.27-.06,1l-.53,1.17,1.21-.42a2.88,2.88,0,0,1,1-.24,1.65,1.65,0,0,1-.11.58.79.79,0,0,0,0,.33A837.84,837.84,0,0,1,106.33,74.9Zm34.2-47.24Zm-1.12-.76Zm-.42-.34.13.05-.13-.05Zm-.08-21.64Zm-1.23,10.14Zm-.38.23Zm-.13,8Zm-.84-7.57Zm0,6.75ZM106.79,12ZM93,24.71ZM90.86,9.48ZM79.27,31Zm-7.69,4.64Zm-2.2-23.38,0,0,0,0Zm-1.1,93.58h0ZM55.69,40.57ZM53,88.9h0ZM36,60Zm-.34,0ZM7.42,105.87Zm0-4.08a.33.33,0,0,1,.12-.15l.11.25Zm10.8,3.34Zm3.93,3.44ZM26.8,115Z"/><path class="cls-7" d="M275.66,80.62a3.34,3.34,0,0,1,0-.71,1.42,1.42,0,0,0-.86-1.43A7.78,7.78,0,0,1,273,77.19a6.47,6.47,0,0,0-2.92-1.79l-.06-.08a2,2,0,0,0-.25-.29,4.39,4.39,0,0,1-1.11-1.81c-.12-.28-.24-.58-.38-.87V72c0-.28,0-.57,0-.85a.92.92,0,0,0,1.05.07c.36-.22.68-.66.19-1.48l0-.06a2.19,2.19,0,0,0-.73-.82,8.17,8.17,0,0,1-3.06-3.21c-.12-.23-.22-.48-.33-.73a5.12,5.12,0,0,0-1.57-2.32,13.33,13.33,0,0,0-2.7-4.32l-.24-.28c-.22-.56-.49-1.08-.75-1.59a9.65,9.65,0,0,1-1.05-2.63,2.83,2.83,0,0,0-.93-1.79l-.18-.16c0-.06.06-.13.1-.2l.05-.1a1.34,1.34,0,0,0,0-1.09,2.22,2.22,0,0,0,2.12,0,2,2,0,0,0,.87-2,15.4,15.4,0,0,1,.85-5l.16-.57A7.47,7.47,0,0,0,260.66,36,11,11,0,0,0,259,32.08v0a1.12,1.12,0,0,0-.29-.84,1,1,0,0,0-.8-.24h-.17a2.67,2.67,0,0,0-1.36.33,2,2,0,0,1-2.35.23,2.07,2.07,0,0,0-2.45.22,2.74,2.74,0,0,0-.44.38c-.22.23-.34.33-.44.35a4,4,0,0,0-1.7-1.25,2.8,2.8,0,0,1-1.32-.93A.8.8,0,0,0,247,30a1.12,1.12,0,0,0-.9.21c-.41.38-.69.3-1.4,0a4.28,4.28,0,0,0-.55-.23,2.93,2.93,0,0,0-1.78-.11,19.82,19.82,0,0,0-5.91,2.84L236,33c-.81.67-1.52,1.25-2.53,1a3.7,3.7,0,0,0-2.72-1.05,4.73,4.73,0,0,0-.76,0,1.71,1.71,0,0,1-1-.11,5.37,5.37,0,0,0-1.67-.64,5.65,5.65,0,0,1-1.41-.51,8.76,8.76,0,0,0-3.83-.83c-.51,0-1-.07-1.53-.14a5,5,0,0,0-3.69.13c-.56.21-.61.19-.82-.32-.91-2.27-1.59-2.41-3.85-2a2,2,0,0,1-1.67-.18,3.77,3.77,0,0,0-2.61-.78c-.79,0-1.13-.28-1.19-1a.66.66,0,0,1,0-.15c0-.28,0-1.05-.8-1.17a8,8,0,0,1-1.63-.51,9.76,9.76,0,0,0-1.76-.55,10.75,10.75,0,0,0-5.24.34,16.36,16.36,0,0,0-5.16,2.43A4.55,4.55,0,0,0,190.76,33c.65,1,.44,1.55-.25,2.37-2.09,2.54-3.35,2.83-5.38,1.27l-.09-.07a14.89,14.89,0,0,0-3-1.92,17.5,17.5,0,0,0-6.81-1.94c-2.71-.06-4-1.05-4.5-3.55-21,13.45-42.55,28.63-64.41,45.77a837.84,837.84,0,0,0-86.21,77.84.86.86,0,0,0,.12.43,1.76,1.76,0,0,0-.52.14l-.27.13-.13.12.12.51c.07.35.22,1.06,1,1.14a4.58,4.58,0,0,1,1.74.71,9.5,9.5,0,0,0,1.05.55c.32.14.65.26,1,.38a6.52,6.52,0,0,1,3,1.76,9.56,9.56,0,0,0,3.5,2.78c0,.85.51,1.4,1.64,1.62a4,4,0,0,1,1.93,1.22c.23.21.46.43.7.62a17,17,0,0,1,1.93,2,14.82,14.82,0,0,0,2.68,2.55,32.92,32.92,0,0,0,4.78,2.55c.89.42,1.82.85,2.7,1.33a2.56,2.56,0,0,0,2.25-.09l.89-.44a20.72,20.72,0,0,1,3.21-1.36,16.88,16.88,0,0,0,1.91-.76,9.86,9.86,0,0,1,2.14-.8,41.9,41.9,0,0,1,5.14-.6c.85-.06,1.72-.13,2.59-.22a15.61,15.61,0,0,1,5,.54l1.29.27c.31.06.64.1,1,.15a5.24,5.24,0,0,1,2.83,1,2,2,0,0,0,2,.38l.22,0a3.6,3.6,0,0,0,1.5-.76,2.79,2.79,0,0,1,1.11-.59,16.76,16.76,0,0,0,5.23-1.64l.19-.1c2-1.11,3.8-2.16,6-1.86a1.56,1.56,0,0,0,2-1.4c0-.27.21-.5.3-.51a10.06,10.06,0,0,0,1.95-.4,9.43,9.43,0,0,1,1.55-.34l.67-.07a67.54,67.54,0,0,1,10.17-.46,4.72,4.72,0,0,1,3.5,1.4,17.76,17.76,0,0,1,3.53,6.41,4.76,4.76,0,0,0,3.71,3.41,13.27,13.27,0,0,0,4-.24,18.75,18.75,0,0,1,2.57-.3,6.77,6.77,0,0,0,1.77-.34,5.91,5.91,0,0,1,1.61-.3l.38,0a2.65,2.65,0,0,0,1.77-.32,1.27,1.27,0,0,0,.46.46,1.58,1.58,0,0,0,1.4,0v0a2.68,2.68,0,0,1,.19.64,2.16,2.16,0,0,0,1,1.64,4.08,4.08,0,0,0,2.48.73,2.6,2.6,0,0,0,.91,2.23,1.69,1.69,0,0,1,.63,1.89s0,0,0,.06c12.87-11.5,26.64-23.1,41.35-34.63A839.34,839.34,0,0,1,275.66,80.62ZM253.9,43.9Zm-1.71-.61,1,1a4.93,4.93,0,0,0,.2,1.19l-.09-.06a1.28,1.28,0,0,0-.46-1,1.89,1.89,0,0,1-.77-1.23A.41.41,0,0,0,252.19,43.29Zm-.5-2.09Zm-.4,35.22Zm-184,49.07ZM76.17,127Zm1.42-6.67Zm.54-.23Zm16.06,30.52h0Zm1.32-34.55Zm.24-.15Zm.82-.75Zm8.1-24.77h0Zm1.08.21h0Zm15,56.62Zm.49-54Zm5.5-4.59Zm2.35-2.34Zm15.38-18.27Z"/><path class="cls-8" d="M306.84,201.45a19.62,19.62,0,0,1,2.33-2.6l1-1,1.69-1.8a66.62,66.62,0,0,1,5.18-5.18l.34-.29a33.38,33.38,0,0,1,5.7-4.25l.43-.22a16.57,16.57,0,0,0,4.26-2.94c.47-.5.95-1,1.43-1.49,3.64-3.79,7.4-7.7,10.06-12.46.38-.69.8-1.37,1.21-2a17.82,17.82,0,0,0,2.89-6.43,9.44,9.44,0,0,1,2.21-4.23,4.46,4.46,0,0,0,.77-1.6,840.31,840.31,0,0,0-142,90c-19.88,15.59-38,31.29-54.58,46.73a8.15,8.15,0,0,0,2.19,2.85,2.74,2.74,0,0,1,.52.65l0,.06a53.41,53.41,0,0,1,3.49,6.43c.82,1.69,1.67,3.44,2.65,5.1.18.3.36.62.54.93a25,25,0,0,0,2.4,3.63l.25.29c1.24,1.46,2.31,2.71,1.41,4.62a1.49,1.49,0,0,0,0,1.06c0,.07,0,.14,0,.21,0,.25.1.52.16.78a4.54,4.54,0,0,1,.16,2.15,5.08,5.08,0,0,0,.66,4.08c.09.17.17.34.25.5a6.69,6.69,0,0,1,.87,2.88,15.8,15.8,0,0,0,1.55,6.77c0,.09,0,.09,0,.13a8,8,0,0,0,1.22,4.39l.18.36a18.46,18.46,0,0,0,5.69,6.76.74.74,0,0,1,.18.22,29.22,29.22,0,0,1,2.92,6.42l.32.88a20.89,20.89,0,0,0,3.76,6.7,6.91,6.91,0,0,1,1.51,4.75c0,.48-.11.62-.16.66a.59.59,0,0,1-.44,0,1.21,1.21,0,0,0-1,.16,1.62,1.62,0,0,0-.52,1.24l0,.25a2.12,2.12,0,0,0,.68,1.71c.38.46.51.67.39,1a.63.63,0,0,0,.07.55.85.85,0,0,0,.72.3h.08a.87.87,0,0,1,.63.52.82.82,0,0,1,0,.76,2.69,2.69,0,0,0,.06,2.79,1.32,1.32,0,0,0,.71.77.94.94,0,0,0,.77,0,1,1,0,0,0,.6-.64.68.68,0,0,0,0-.14,2.09,2.09,0,0,0,1.41.79l.16,0c.24.06.35.22.56.53a2.21,2.21,0,0,0,.71.76,5.42,5.42,0,0,0,2.68,1,4.28,4.28,0,0,0,2.69-1.23,14.5,14.5,0,0,1,3.24-.79,7.67,7.67,0,0,1,1.08,0,3.7,3.7,0,0,0,3.44-1.25,2,2,0,0,1,1.45-.66,5.84,5.84,0,0,1,1.7.16,8.36,8.36,0,0,0,1.63.2,2.79,2.79,0,0,0,1.18-.35c.32-.16.52-.25.71-.2.47.13.94.22,1.4.3a7.55,7.55,0,0,1,2.47.75,2.49,2.49,0,0,0,1.73.21.87.87,0,0,0,.54-.44c.4-.84.72-.92,1.85-.4a1.9,1.9,0,0,0,1,.09,1.77,1.77,0,0,1,.32,0,1,1,0,0,0,.71-.24,1,1,0,0,0,.27-.74,1,1,0,0,1,.27-.77.54.54,0,0,1,.48,0c2.1.95,3.78,0,5.26-.84l.41-.23a32.17,32.17,0,0,0,4.1-2.85c.56-.44,1.13-.87,1.7-1.29l.08-.06a18.53,18.53,0,0,0,4.13-3.71,5.34,5.34,0,0,1,1.62-1.48c2.82-1.63,4.58-4.22,6.29-6.72.2-.28.39-.57.59-.86.39-.56.72-1.15,1-1.72a10.29,10.29,0,0,1,2.21-3c.18-.14.35-.29.52-.44a7.69,7.69,0,0,1,1.95-1.36,5.91,5.91,0,0,0,3.29-4.37,19.92,19.92,0,0,1,1-3.09,14.4,14.4,0,0,0,1.26-4.87,8.2,8.2,0,0,1,.15-1.16,5.7,5.7,0,0,0,0-2.79l-.24-.82a4.38,4.38,0,0,1,1.32-.94,36.25,36.25,0,0,1,7.42-2.7l.27-.08a6.94,6.94,0,0,0,3.57-2.67l.32-.36a2.19,2.19,0,0,0,.77-2.22,6.55,6.55,0,0,1,.81-4.64c.07-.13.37-.81,0-1.2s-.34-.65-.08-1.36c.06-.18.13-.36.18-.56.15-.54.46-1.66-1-2.07a.17.17,0,0,1,0-.1,1.43,1.43,0,0,0,1.06-1.8,1.94,1.94,0,0,1,0-.39l0-.15c.15-.81-.07-1.28-.65-1.41a.84.84,0,0,0-1,.37c-.47-.64-.69-1.05-.43-1.75a2.56,2.56,0,0,0-.79-2.87c-.72-.46-.71-.69-.5-1.67l0-.1c.2-1,.27-1.34,1.22-1.69a7.5,7.5,0,0,0,2.91-2.64l.21-.28a3.11,3.11,0,0,1,1.53-1.22,3.62,3.62,0,0,0,2.85-1.66l.31-.36.32-.35a20.23,20.23,0,0,1,5.55-4.92c.31-.16.61-.34.91-.52a6.47,6.47,0,0,1,1.83-.87l.66-.15a15.27,15.27,0,0,0,5.16-1.82,22.88,22.88,0,0,0,4.39-3.79l.38-.38c1.59-1.62,3.24-3.29,3.73-5.76a4.15,4.15,0,0,1,.24-.7,4.32,4.32,0,0,0,.36-1.15,5.23,5.23,0,0,0-.64-2.89,4.77,4.77,0,0,1-.57-2.23c0-.25.06-.5.1-.75a7.17,7.17,0,0,0,.12-1.69,3.77,3.77,0,0,0-.38-1.46,1.79,1.79,0,0,0,.86-1.72,15.09,15.09,0,0,0-.32-3.17,12.06,12.06,0,0,1-.26-3.42,2.46,2.46,0,0,0,0-.26v-.11h.12a1,1,0,0,0,.88-.23.84.84,0,0,0,.23-.73,1.11,1.11,0,0,1,0-.23c0-.29.17-1.15-.7-1.32l-.07,0s0-.1,0-.14l0-.15c.29-2.49-.17-3.33-2.37-4.28a2.07,2.07,0,0,1-1.21-1.45,10.75,10.75,0,0,1-.5-2.24,8.62,8.62,0,0,0-1.11-3.58,2.15,2.15,0,0,1-.14-2.62,2.76,2.76,0,0,0,0-2.62c-.52-.81-.25-1.29.44-2.12a2,2,0,0,0,.43-1.87,1.63,1.63,0,0,0-1.22-1c-.1,0-.12,0-.17-.33a2.25,2.25,0,0,0-1.37-1.69c-.55-.22-.65-.35-.65-.87a4.45,4.45,0,0,0-.07-.66,1.34,1.34,0,0,1,0-.92l.26-.5a15,15,0,0,0,1.44-3.4,4.38,4.38,0,0,1,1.27-2.52,5.06,5.06,0,0,0,1.11-1.57l.13-.26a22.12,22.12,0,0,0,.93-2.06,18.92,18.92,0,0,1,1-2.22l.07-.11a6.51,6.51,0,0,0,1.22-3.84c0-.27.31-.48.65-.55,2.17-.44,2.67-.94,3-3a.91.91,0,0,1,.05-.21c1.64.33,2.44-.76,3-1.55.15-.2.29-.4.45-.58a12.89,12.89,0,0,0,1.55-2.3C306.27,202.35,306.54,201.89,306.84,201.45ZM218.47,317.23Zm24.63-24.56Zm6-75.91Zm10.27,29.5Zm2.15.74Z"/><path class="cls-9" d="M346.33,154.94c.05-.2.11-.41.16-.62a3.87,3.87,0,0,1,1.17-2.32,6.25,6.25,0,0,0,1.59-2.84,8.33,8.33,0,0,1,1-2.22c1.06-1.43,1.07-3.15,1.07-4.82,0-.53,0-1,0-1.53s.07-.42.41-.56h.29a2.91,2.91,0,0,0,.42,0h.09a1,1,0,0,0,.77-.19.9.9,0,0,0,.29-.64v-.08a1.05,1.05,0,0,0-.2-.88,1,1,0,0,0-.76-.3c-.07,0-.16-.09-.17-.09-.06-.51-.16-1-.26-1.49a5.51,5.51,0,0,1,0-3.29,1.83,1.83,0,0,0-.37-2.38,3.21,3.21,0,0,0-2.54-.57,3.31,3.31,0,0,0-2.14,1.57s-.07.09-.26.2a9.41,9.41,0,0,1-2.57,1,10.81,10.81,0,0,0-2.7,1,4.15,4.15,0,0,1-3,.23,3.51,3.51,0,0,0-2.52.61c-1.2.66-2,.77-2.74.37a1.64,1.64,0,0,0-1.78.07l-1.19.8c-.64.44-1.3.89-2,1.29a1.61,1.61,0,0,1-1.77.24,3.91,3.91,0,0,0-3.25-.3,14.88,14.88,0,0,0-2.24,1.27l-.19.12a4.64,4.64,0,0,1-3.44,1,6.27,6.27,0,0,1-4.25-3.22c-.11-.18-.2-.36-.3-.54a4.29,4.29,0,0,0-2.16-2.22,2.35,2.35,0,0,0-.64-.15,2.16,2.16,0,0,1,.75-.45,1.39,1.39,0,0,0,1.19-1.52c0-1.72-2-4.95-3.56-5.59a.72.72,0,0,0-.29-.12,2.8,2.8,0,0,1-2.35-1.9,2.52,2.52,0,0,0-.68-1,2.38,2.38,0,0,1-.27-.29,6,6,0,0,0-1.79-1.35,3.93,3.93,0,0,1-1.74-1.5c-.48-.88-1.12-2.09-2.45-2.34a6.28,6.28,0,0,1-2.1-1,9.57,9.57,0,0,0-1.58-.87s0,0-.14-.2a2.4,2.4,0,0,0-.11-.23c-.57-1-1.79-1.94-2.93-1.57a.81.81,0,0,1-1-.28h0a4.44,4.44,0,0,0-.94-1.73,3.05,3.05,0,0,1-.76-1.48,20.53,20.53,0,0,0-1.42-5.06l0-.09c-.85-2.29-1.81-4.46-4.12-5.77l-.16-.08a2.09,2.09,0,0,1-1.09-1,3.42,3.42,0,0,0-2.4-1.71c-.6-.14-.79-.37-.91-.7s-.19-.54-.3-.81a9.88,9.88,0,0,1-.72-2.56c-.08-1-.24-1.95-.39-2.88a20.61,20.61,0,0,1-.39-4.73,1.57,1.57,0,0,0-.42-1.13,6.13,6.13,0,0,1-1.53-2.88,839.34,839.34,0,0,0-96.33,65.28C164.62,157.43,150.85,169,138,180.53a19.57,19.57,0,0,0-.58,4.85,1.81,1.81,0,0,1-.23,1.07c-.22.34-.44.66-.67,1s-.63.91-.92,1.39l-.08.13a1.54,1.54,0,0,0-.34,1.46,1.33,1.33,0,0,0,1,.63,2.23,2.23,0,0,0,.08.87,1.11,1.11,0,0,0-1.24.87,2.45,2.45,0,0,0,.15,1.58l-.21,0v.49c0,.16,0,.32,0,.49,0,.33,0,.64,0,.94-.11,1.27-.4,2.07-.86,2.37a1.79,1.79,0,0,1-1.54,0l-.5-.16-.18.49a2.23,2.23,0,0,0,.34,2.09,18.52,18.52,0,0,1,2.13,4,13.86,13.86,0,0,0,3,4.64l.3.35a16.94,16.94,0,0,0,2.2,2,18.27,18.27,0,0,1,1.83,1.63c.81.87,1.61,1.76,2.4,2.64,1.05,1.16,2.14,2.37,3.24,3.52a7,7,0,0,1,1,1.62,9.23,9.23,0,0,0,1,1.64,3.39,3.39,0,0,1,.74,1.41,1,1,0,0,1-.14.21,1,1,0,0,0,0,1.38,3.45,3.45,0,0,1,.87,2,7.1,7.1,0,0,0,.3,1.23,5.73,5.73,0,0,0,1.15,1.8,4.77,4.77,0,0,1,.93,1.39l.28.8a31.4,31.4,0,0,0,2.9,6.58,1.81,1.81,0,0,1,.09,1,3.9,3.9,0,0,0-1.73,2.39,3,3,0,0,0,.65,2.2v0a13.75,13.75,0,0,0,2.32,5.25,5.05,5.05,0,0,1,1.11,3.83c0,.12,0,.25-.07.38a7.35,7.35,0,0,0-.17,1.51c.07,2.47-.4,3.35-2.47,4.7-1.4.91-1.38,1.5-1.37,1.69,0,.67-.32,1-.92,1.46a6.59,6.59,0,0,0-.73.67l-.1.08a1,1,0,0,0-.54,1,3.33,3.33,0,0,1-.3,1.54,4.34,4.34,0,0,0-.36,1.51,13.34,13.34,0,0,1-.81,4.14,18.61,18.61,0,0,0-.8,3.37v.08c0,.25-.07.66-.23.72-1.39.51-1.2,1.54-1.08,2.23l.06.34a5.69,5.69,0,0,0,.17.72,3.14,3.14,0,0,1,.17.83,1.29,1.29,0,0,0-.61,1.94l0,.1a4.84,4.84,0,0,1,.15,3.09,3.66,3.66,0,0,0-.07,1.55,14.37,14.37,0,0,0,1,3.25c16.55-15.44,34.7-31.14,54.58-46.73A840.31,840.31,0,0,1,346.33,154.94Zm-53.58-2.5Zm-7.11-36.67ZM252.16,209Zm-9.77-11.25ZM210.32,197Zm-57,30.15Zm16.27,38.29ZM170.83,187Zm9.55,76.75Z"/><path class="cls-10" d="M345.24,271.22a14.06,14.06,0,0,0-.65-4.37c-.69-1.71-1.81-3.25-2.58-5a.83.83,0,0,0-1.37.06c-.48.78-.95,1.35-2,1.21a.73.73,0,0,0-.74.47c-.11.38.28.36.44.52.64.63,1.13,1.38.5,2.3a2.43,2.43,0,0,0-.48,1.45.86.86,0,0,1-.51.86c-.47.16-.42-.38-.66-.54a3.67,3.67,0,0,0-.44-.21c-.07.41-.13.75-.19,1.08a1.63,1.63,0,0,1-.16-.63c-.08-.31.27-.78-.31-.9a1,1,0,0,0-.95.39c-.43.45,0,.82.2,1,.64.5.18,1.11.29,1.68-.33-.86-1.25-1.67-1.7-1-.57.85-1.54,1.83-1.39,2.94a2.52,2.52,0,0,1-1.27,2.47,5.31,5.31,0,0,0-2.6,4.12c-.49-1.34-.69-1.37-1.86-.46-1.48,1.15-2.94,2.37-5,2.07-.29,0-.68,0-.72.3-.1.89-.73.64-1.25.68s-1-.22-1.29.14c-.8,1.09-1.87,1-3,.85-.35,0-.77-.09-.72.5.15,1.88-.87,3.2-2,4.59-.77,1-1.74,2.07-1,3.55a.7.7,0,0,1,0,.54c-.56,2.45,1,4.7.73,7.13,0,0,0,.07.06.1,1,2.41.39,4.36-1.26,6.34a6.2,6.2,0,0,0-1.87,3.14c-.08.64-.33,1.24-1.25,1.12a.81.81,0,0,0-.87.84,3,3,0,0,1-1.08,2.06,1.9,1.9,0,0,0-.66,1.77,17,17,0,0,1,.23,2.76,3.15,3.15,0,0,0,.86,2.3,2.57,2.57,0,0,1,.51,2.44c-.66,1.3-.15,2.66-.58,3.93a1.49,1.49,0,0,0,.62,1.82c.37.23.35.61.33,1a3.61,3.61,0,0,0,2.92,3.37,2.92,2.92,0,0,1,1.52.9,3.75,3.75,0,0,0,4.12.49,7.86,7.86,0,0,1,4.48-1.39,3.61,3.61,0,0,0,3-1.54c1-1.39,1.28-3.11,2.32-4.47a8,8,0,0,0,.86-1.79c1-2.34,1.55-4.83,2.65-7.1a102.61,102.61,0,0,0,4.28-9.67c.39-1.07,1.21-1.91,1.49-3,.63-2.41,1.92-4.52,2.89-6.77s2.05-4.4,1.91-7a3.1,3.1,0,0,1,1.58-2.71c.16.57-.5,1,0,1.26s.75-.29.94-.69a8.59,8.59,0,0,1,.4-.87c.18-.29.41-.59,0-.81s-.51,0-.61.37c0,.12-.21.39-.45.16s.06-.26.16-.39a2,2,0,0,0,.38-1.22,35.5,35.5,0,0,0-.48-4c-.06-.59-.11-1.15.59-1.48a20,20,0,0,1,.58,2.07c.09.55.3.8.86.78s.89,0,1.18-.57c.77-1.67,1.51-3.14.53-5.14S345.37,273.34,345.24,271.22Zm-15.61,23.41-.25-.36.25.36Z"/><text class="cls-2" transform="translate(110.62 205.6)"><tspan xml:space="preserve"> A</tspan></text></g></g></svg>